<svg width="74" height="24" viewBox="0 0 74 24" fill="none" xmlns="http://www.w3.org/2000/svg">
<path d="M0 19.2212L0.279502 2.46127C0.279502 1.08083 1.0656 0.76709 1.83423 0.76709H2.67274C3.56365 0.76709 3.9829 1.18541 4.27987 2.33577L6.49842 16.5231H6.53335L9.27596 2.33577C9.57294 1.18541 9.99219 0.76709 10.8831 0.76709H11.6867C13.2414 0.76709 13.2414 1.08083 13.2414 2.46127L12.9619 19.2212C12.9619 20.0788 12.6125 23.2328 11.6867 23.2328C10.7608 23.2328 10.4114 20.0788 10.4114 19.2212V9.89278H10.3765L7.70377 19.8905C7.51161 20.6017 7.07489 23.2328 6.48095 23.2328C5.88701 23.2328 5.45028 20.6017 5.25813 19.8905L2.58539 9.89278H2.55045V19.2212C2.55045 20.0788 2.20108 23.2328 1.27523 23.2328C0.349377 23.2328 0 20.0788 0 19.2212Z" fill="#E7C379"/>
<path d="M15.5594 19.1794V7.57113C15.5594 6.04428 16.2232 5.56322 17.2364 5.56322H21.6211C24.0318 5.56322 25.9709 6.98549 25.9709 10.332C25.9709 13.072 24.3812 15.1008 21.6037 15.1008H18.4243V19.1794C18.4243 20.2043 17.8653 20.8945 16.9919 20.8945C16.1184 20.8945 15.5594 20.2043 15.5594 19.1794ZM18.4243 8.19861V12.4654H21.0971C22.25 12.4654 23.106 11.6288 23.106 10.332C23.106 8.82608 22.2151 8.19861 20.8001 8.19861H18.4243Z" fill="#E7C379"/>
<path d="M27.8593 19.1794V7.57113C27.8593 6.04428 28.5231 5.56322 29.5363 5.56322H34.3053C37.7117 5.56322 38.6201 7.80121 38.6201 9.74637C38.6201 11.3778 37.8165 12.9883 36.454 13.3648V13.4066C37.9213 13.6576 38.1834 14.9335 38.1834 16.4603C38.1834 18.1963 38.5677 18.8447 38.5677 19.5559C38.5677 20.3507 37.8864 20.8945 37.2226 20.8945C35.6504 20.8945 35.5281 19.0748 35.5281 18.4683C35.5281 15.8329 35.1263 14.7662 33.5541 14.7662H30.7242V19.1794C30.7242 20.2043 30.1652 20.8945 29.2917 20.8945C28.4183 20.8945 27.8593 20.2043 27.8593 19.1794ZM30.7242 8.19861V12.2563H33.5891C34.6721 12.2563 35.7552 11.9216 35.7552 10.2274C35.7552 8.61692 34.9342 8.19861 33.6764 8.19861H30.7242Z" fill="#E7C379"/>
<path d="M40.8074 19.1794V7.00641C40.8074 5.98154 41.3664 5.29132 42.2398 5.29132C43.1133 5.29132 43.6723 5.98154 43.6723 7.00641V19.1794C43.6723 20.2043 43.1133 20.8945 42.2398 20.8945C41.3664 20.8945 40.8074 20.2043 40.8074 19.1794Z" fill="#E7C379"/>
<path d="M46.2822 19.2212V6.98549C46.2822 5.60505 47.0683 5.29132 47.837 5.29132H48.6755C49.5664 5.29132 49.9856 5.70963 50.2826 6.86L52.7807 16.5231H52.8156L55.2787 6.86C55.5757 5.70963 55.9949 5.29132 56.8858 5.29132H57.6894C58.458 5.29132 59.2441 5.60505 59.2441 6.98549V19.2212C59.2441 20.0788 58.8948 20.8945 57.9689 20.8945C57.0431 20.8945 56.6937 20.0788 56.6937 19.2212V9.89278H56.6587L53.986 19.8905C53.7938 20.6017 53.3571 20.8945 52.7632 20.8945C52.1692 20.8945 51.7325 20.6017 51.5404 19.8905L48.8676 9.89278H48.8327V19.2212C48.8327 20.0788 48.4833 20.8945 47.5575 20.8945C46.6316 20.8945 46.2822 20.0788 46.2822 19.2212Z" fill="#E7C379"/>
<path d="M61.2827 12.9047C61.2827 8.49143 63.5187 5.20765 67.6413 5.20765C71.764 5.20765 74 8.49143 74 12.9047C74 17.1506 71.9387 20.9781 67.6413 20.9781C63.1344 20.9781 61.2827 17.4643 61.2827 12.9047ZM64.1476 12.9047C64.1476 15.791 64.9511 18.2173 67.6413 18.2173C70.2442 18.2173 71.1351 15.791 71.1351 12.9047C71.1351 10.0183 69.9822 7.96853 67.6413 7.96853C65.3005 7.96853 64.1476 10.0183 64.1476 12.9047Z" fill="#E7C379"/>
</svg>
