<svg width="216" height="52" viewBox="0 0 216 52" fill="none" xmlns="http://www.w3.org/2000/svg">
<path d="M26.5556 0C26.9226 0.119862 27.3071 0.079908 27.6829 0.114668C32.7794 0.589321 37.3462 2.40243 41.3349 5.59635C46.0144 9.34324 49.1401 14.1377 50.3586 20.0086C52.3094 29.4093 49.8045 37.5547 42.9231 44.265C39.2386 47.8609 34.7574 50.0108 29.6817 50.8806C25.7665 51.5513 21.8984 51.3234 18.0776 50.197C17.3025 49.9696 16.4822 49.9537 15.7058 49.7239C9.64956 47.9336 4.84051 44.5239 1.74561 38.9244C0.736625 37.0985 0.208549 35.1104 0.0122699 33.0359C-0.0113156 32.7842 -0.0129149 32.5309 0.119404 32.3028C0.294896 31.9991 0.547541 31.9935 0.723833 32.2848C1.73321 33.9557 2.62826 35.6937 3.68202 37.3402C4.58466 38.753 5.54887 40.137 6.84808 41.2013C8.26641 42.3624 9.89261 43.1227 11.809 42.9801C11.9605 42.9689 12.11 42.9357 12.2859 42.9086C12.2004 42.7887 12.0833 42.7647 11.9849 42.716C10.8595 42.1628 9.73337 41.6107 8.6066 41.0599C8.23363 40.8773 7.949 40.5952 7.71394 40.2608C7.59402 40.0882 7.51886 39.8964 7.54005 39.6775C7.57683 39.2931 7.77311 39.1677 8.1201 39.3131C9.8994 40.0599 11.7343 40.4938 13.6839 40.4318C15.1926 40.3839 16.5245 40.9113 17.5919 41.9769C18.8827 43.265 20.1419 44.5886 21.0134 46.2172C21.3184 46.7877 21.5702 47.3814 21.5758 48.0431C21.5758 48.2428 21.6958 48.2428 21.8289 48.2516C22.7233 48.3119 23.6206 48.3172 24.5156 48.2676C27.0953 48.1318 29.6149 47.6559 32.0058 46.6718C39.9578 43.3992 45.1254 37.6175 46.9167 29.2036C48.8067 20.321 46.2771 12.6143 39.7051 6.33231C36.1553 2.93862 31.8555 0.945311 26.9929 0.185786C26.6475 0.131049 26.3069 0.0619287 25.9651 0H26.5556Z" fill="#EAA423"/>
<path d="M26.3163 18.3354C26.6809 19.3578 26.9519 20.4112 27.1258 21.4826C27.4856 23.6944 27.482 25.9055 26.8088 28.0558C25.1958 33.2107 21.6656 36.3119 16.4236 37.4634C13.7736 38.0447 11.1868 37.7283 8.74031 36.528C6.05356 35.2096 4.23268 33.0644 3.01862 30.3719C2.32904 28.8425 1.85294 27.2439 1.66465 25.5775C1.56431 24.6901 1.60109 23.7871 1.65266 22.8938C1.76979 20.8593 2.13596 18.8668 2.82554 16.947C4.86482 11.2695 8.58494 7.07544 13.9859 4.36469C16.2264 3.24438 18.6519 2.54041 21.1443 2.28709C26.826 1.69017 32.0176 3.00626 36.6308 6.38277C41.244 9.75928 44.1738 14.2665 45.2355 19.882C46.5763 26.9735 44.8474 33.3134 40.0923 38.7467C36.7371 42.5823 32.4734 44.9056 27.4444 45.8062C26.6805 45.9428 25.9118 46.0275 25.1391 46.0878C24.958 46.1022 24.8896 46.0675 24.924 45.8881C25.2142 44.3722 25.2838 42.8116 25.829 41.3477C25.8482 41.2966 25.8662 41.245 25.887 41.1947C26.2176 40.3828 26.268 40.3528 27.1362 40.3536C28.3823 40.3536 29.6283 40.3656 30.8735 40.3429C31.7662 40.3265 32.6388 40.2078 33.356 39.5869C34.1211 38.9241 34.4353 38.1258 34.1195 37.1322C33.9808 36.6959 33.8465 36.258 33.6834 35.8309C33.4735 35.2831 33.5763 34.8064 33.9496 34.3717C34.0992 34.1979 34.2467 34.0225 34.397 33.8495C34.6056 33.6098 34.5797 33.3753 34.3806 33.1459C34.3234 33.0804 34.2607 33.0197 34.1987 32.9574C33.8065 32.5578 33.8105 32.4895 34.2431 32.1611C34.8483 31.7024 34.9027 31.3712 34.4517 30.7663C34.1127 30.3108 34.0244 29.7694 33.9177 29.2388C33.8721 29.0123 34.0376 28.8453 34.2495 28.7698C34.4237 28.707 34.604 28.6628 34.7875 28.6379C35.3104 28.5689 35.8021 28.3503 36.2035 28.0083C36.7231 27.574 36.8031 27.206 36.5193 26.5915C36.2394 25.9842 35.8541 25.44 35.4535 24.9074C34.4106 23.5206 33.2549 22.2217 32.2487 20.805C32.1452 20.6595 32.0796 20.5205 32.1484 20.3531C32.5121 19.4665 32.391 18.5751 32.1679 17.6877C31.171 13.7251 28.6337 11.1373 24.9076 9.63782C22.5862 8.7037 20.1625 8.46397 17.6784 8.62738C15.6613 8.76163 13.6989 9.12641 11.82 9.88034C8.29978 11.2931 5.73096 13.6604 4.43735 17.2886C3.98843 18.5484 3.76176 19.8541 3.65623 21.1853C3.51152 23.012 3.58147 24.8239 3.99842 26.6143C4.54129 28.9432 5.59504 30.9864 7.37075 32.6273C9.07171 34.1995 11.0733 35.0769 13.3911 35.152C14.4456 35.1864 15.4578 34.9655 16.2597 34.1863C16.7946 33.6669 17.0532 33.0209 17.1156 32.2917C17.2395 30.8422 16.8018 29.5117 16.2209 28.2164C15.2215 25.9894 13.8168 24.0185 12.3229 22.1055C12.163 21.8997 11.9779 21.7091 11.8996 21.4502C11.8644 21.334 11.826 21.2105 11.922 21.111C12.0247 21.0051 12.1698 21.0051 12.2897 21.0639C12.485 21.1604 12.6734 21.2704 12.8534 21.3931C13.9455 22.1266 14.8698 23.0636 15.8835 23.893C16.9861 24.7952 18.1813 25.4876 19.6084 25.7768C20.7326 26.005 21.702 25.6442 22.6466 25.1539C24.27 24.3105 25.157 22.8766 25.6923 21.1877C25.9466 20.3769 26.129 19.5453 26.2376 18.7026C26.25 18.5983 26.2816 18.4952 26.3163 18.3354Z" fill="#00B0C7"/>
<path d="M22.5677 20.9583C22.571 21.2749 22.5116 21.5891 22.3926 21.8826C22.2737 22.176 22.0978 22.443 21.8749 22.6681C21.6521 22.8932 21.3868 23.0718 21.0944 23.1937C20.802 23.3156 20.4883 23.3784 20.1715 23.3783C18.8695 23.3783 17.773 22.2796 17.7754 20.9767C17.7758 20.6628 17.8381 20.3521 17.9587 20.0623C18.0792 19.7725 18.2557 19.5093 18.4781 19.2877C18.7004 19.0661 18.9643 18.8905 19.2546 18.7708C19.5449 18.6511 19.8559 18.5897 20.1699 18.5902C21.5155 18.587 22.5621 19.6206 22.5677 20.9583Z" fill="#00B0C7"/>
<path d="M82.192 14.3241V16.6921H76.112V36.6281H73.2V16.6921H67.088V14.3241H82.192ZM94.4805 18.7721C95.8032 18.7721 96.9978 19.0601 98.0645 19.6361C99.1312 20.1907 99.9632 21.0334 100.561 22.1641C101.179 23.2947 101.489 24.6707 101.489 26.2921V36.6281H98.6085V26.7081C98.6085 24.9587 98.1712 23.6254 97.2965 22.7081C96.4218 21.7694 95.2272 21.3001 93.7125 21.3001C92.1765 21.3001 90.9498 21.7801 90.0325 22.7401C89.1365 23.7001 88.6885 25.0974 88.6885 26.9321V36.6281H85.7765V12.9481H88.6885V21.5881C89.2645 20.6921 90.0538 19.9987 91.0565 19.5081C92.0805 19.0174 93.2218 18.7721 94.4805 18.7721ZM122.245 27.1881C122.245 27.7427 122.213 28.3294 122.149 28.9481H108.133C108.24 30.6761 108.827 32.0307 109.893 33.0121C110.981 33.9721 112.293 34.4521 113.829 34.4521C115.088 34.4521 116.133 34.1641 116.965 33.5881C117.819 32.9907 118.416 32.2014 118.757 31.2201H121.893C121.424 32.9054 120.485 34.2814 119.077 35.3481C117.669 36.3934 115.92 36.9161 113.829 36.9161C112.165 36.9161 110.672 36.5427 109.349 35.7961C108.048 35.0494 107.024 33.9934 106.277 32.6281C105.531 31.2414 105.157 29.6414 105.157 27.8281C105.157 26.0147 105.52 24.4254 106.245 23.0601C106.971 21.6947 107.984 20.6494 109.285 19.9241C110.608 19.1774 112.123 18.8041 113.829 18.8041C115.493 18.8041 116.965 19.1667 118.245 19.8921C119.525 20.6174 120.507 21.6201 121.189 22.9001C121.893 24.1587 122.245 25.5881 122.245 27.1881ZM119.237 26.5801C119.237 25.4707 118.992 24.5214 118.501 23.7321C118.011 22.9214 117.339 22.3134 116.485 21.9081C115.653 21.4814 114.725 21.2681 113.701 21.2681C112.229 21.2681 110.971 21.7374 109.925 22.6761C108.901 23.6147 108.315 24.9161 108.165 26.5801H119.237ZM129.001 21.9401C129.513 20.9374 130.238 20.1587 131.177 19.6041C132.137 19.0494 133.3 18.7721 134.665 18.7721V21.7801H133.897C130.633 21.7801 129.001 23.5507 129.001 27.0921V36.6281H126.089V19.0921H129.001V21.9401ZM136.939 27.7961C136.939 26.0041 137.301 24.4361 138.027 23.0921C138.752 21.7267 139.744 20.6707 141.003 19.9241C142.283 19.1774 143.701 18.8041 145.259 18.8041C146.795 18.8041 148.128 19.1347 149.259 19.7961C150.389 20.4574 151.232 21.2894 151.787 22.2921V19.0921H154.731V36.6281H151.787V33.3641C151.211 34.3881 150.347 35.2414 149.195 35.9241C148.064 36.5854 146.741 36.9161 145.227 36.9161C143.669 36.9161 142.261 36.5321 141.003 35.7641C139.744 34.9961 138.752 33.9187 138.027 32.5321C137.301 31.1454 136.939 29.5667 136.939 27.7961ZM151.787 27.8281C151.787 26.5054 151.52 25.3534 150.987 24.3721C150.453 23.3907 149.728 22.6441 148.811 22.1321C147.915 21.5987 146.923 21.3321 145.835 21.3321C144.747 21.3321 143.755 21.5881 142.859 22.1001C141.963 22.6121 141.248 23.3587 140.715 24.3401C140.181 25.3214 139.915 26.4734 139.915 27.7961C139.915 29.1401 140.181 30.3134 140.715 31.3161C141.248 32.2974 141.963 33.0547 142.859 33.5881C143.755 34.1001 144.747 34.3561 145.835 34.3561C146.923 34.3561 147.915 34.1001 148.811 33.5881C149.728 33.0547 150.453 32.2974 150.987 31.3161C151.52 30.3134 151.787 29.1507 151.787 27.8281Z" fill="#00B0C7"/>
<path d="M166.884 18.8041C168.398 18.8041 169.721 19.1347 170.852 19.7961C172.004 20.4574 172.857 21.2894 173.412 22.2921V19.0921H176.356V37.0121C176.356 38.6121 176.014 40.0307 175.332 41.2681C174.649 42.5267 173.668 43.5081 172.388 44.2121C171.129 44.9161 169.657 45.2681 167.972 45.2681C165.668 45.2681 163.748 44.7241 162.212 43.6361C160.676 42.5481 159.769 41.0654 159.492 39.1881H162.372C162.692 40.2547 163.353 41.1081 164.356 41.7481C165.358 42.4094 166.564 42.7401 167.972 42.7401C169.572 42.7401 170.873 42.2387 171.876 41.2361C172.9 40.2334 173.412 38.8254 173.412 37.0121V33.3321C172.836 34.3561 171.982 35.2094 170.852 35.8921C169.721 36.5747 168.398 36.9161 166.884 36.9161C165.326 36.9161 163.908 36.5321 162.628 35.7641C161.369 34.9961 160.377 33.9187 159.652 32.5321C158.926 31.1454 158.564 29.5667 158.564 27.7961C158.564 26.0041 158.926 24.4361 159.652 23.0921C160.377 21.7267 161.369 20.6707 162.628 19.9241C163.908 19.1774 165.326 18.8041 166.884 18.8041ZM173.412 27.8281C173.412 26.5054 173.145 25.3534 172.612 24.3721C172.078 23.3907 171.353 22.6441 170.436 22.1321C169.54 21.5987 168.548 21.3321 167.46 21.3321C166.372 21.3321 165.38 21.5881 164.484 22.1001C163.588 22.6121 162.873 23.3587 162.34 24.3401C161.806 25.3214 161.54 26.4734 161.54 27.7961C161.54 29.1401 161.806 30.3134 162.34 31.3161C162.873 32.2974 163.588 33.0547 164.484 33.5881C165.38 34.1001 166.372 34.3561 167.46 34.3561C168.548 34.3561 169.54 34.1001 170.436 33.5881C171.353 33.0547 172.078 32.2974 172.612 31.3161C173.145 30.3134 173.412 29.1507 173.412 27.8281ZM182.781 16.2441C182.226 16.2441 181.757 16.0521 181.373 15.6681C180.989 15.2841 180.797 14.8147 180.797 14.26C180.797 13.7054 180.989 13.2361 181.373 12.8521C181.757 12.4681 182.226 12.2761 182.781 12.2761C183.314 12.2761 183.762 12.4681 184.125 12.8521C184.509 13.2361 184.701 13.7054 184.701 14.26C184.701 14.8147 184.509 15.2841 184.125 15.6681C183.762 16.0521 183.314 16.2441 182.781 16.2441ZM184.189 19.0921V36.6281H181.277V19.0921H184.189ZM195.36 36.9161C194.016 36.9161 192.81 36.6921 191.744 36.2441C190.677 35.7747 189.834 35.1347 189.216 34.3241C188.597 33.4921 188.256 32.5427 188.192 31.4761H191.2C191.285 32.3507 191.69 33.0654 192.416 33.6201C193.162 34.1747 194.133 34.4521 195.328 34.4521C196.437 34.4521 197.312 34.2067 197.952 33.7161C198.592 33.2254 198.912 32.6067 198.912 31.8601C198.912 31.0921 198.57 30.5267 197.888 30.1641C197.205 29.7801 196.149 29.4067 194.72 29.0441C193.418 28.7027 192.352 28.3614 191.52 28.0201C190.709 27.6574 190.005 27.1347 189.408 26.4521C188.832 25.7481 188.544 24.8307 188.544 23.7001C188.544 22.8041 188.81 21.9827 189.344 21.2361C189.877 20.4894 190.634 19.9027 191.616 19.4761C192.597 19.0281 193.717 18.8041 194.976 18.8041C196.917 18.8041 198.485 19.2947 199.68 20.2761C200.874 21.2574 201.514 22.6014 201.6 24.3081H198.688C198.624 23.3907 198.25 22.6547 197.568 22.1001C196.906 21.5454 196.01 21.2681 194.88 21.2681C193.834 21.2681 193.002 21.4921 192.384 21.9401C191.765 22.3881 191.456 22.9747 191.456 23.7001C191.456 24.2761 191.637 24.7561 192 25.1401C192.384 25.5027 192.853 25.8014 193.408 26.0361C193.984 26.2494 194.773 26.4947 195.776 26.7721C197.034 27.1134 198.058 27.4547 198.848 27.7961C199.637 28.1161 200.309 28.6067 200.864 29.2681C201.44 29.9294 201.738 30.7934 201.76 31.8601C201.76 32.8201 201.493 33.6841 200.96 34.4521C200.426 35.2201 199.669 35.8281 198.688 36.2761C197.728 36.7027 196.618 36.9161 195.36 36.9161ZM209.422 21.4921V31.8281C209.422 32.6814 209.604 33.2894 209.966 33.6521C210.329 33.9934 210.958 34.1641 211.854 34.1641H213.998V36.6281H211.374C209.753 36.6281 208.537 36.2547 207.726 35.5081C206.916 34.7614 206.51 33.5347 206.51 31.8281V21.4921H204.238V19.0921H206.51V14.6761H209.422V19.0921H213.998V21.4921H209.422Z" fill="#EAA423"/>
</svg>
